<svg xmlns="http://www.w3.org/2000/svg" width="580" height="230" viewBox="0 0 580 230" role="img" aria-labelledby="title desc">
  <title id="title">Odysseus Babbage</title>
  <desc id="desc">A self-hosted workspace for agents, research, documents, email, notes, calendar, and local model workflows. Technologies: AI Agents, MCP, Local Models, Docker.</desc>
  <defs>
    <linearGradient id="bg" x1="0" y1="0" x2="1" y2="1">
      <stop offset="0%" stop-color="#071722"/>
      <stop offset="100%" stop-color="#0C2A3D"/>
    </linearGradient>
    <pattern id="hex" width="42" height="36.4" patternUnits="userSpaceOnUse">
      <path d="M10.5 1H31.5L41 18.2 31.5 35.4H10.5L1 18.2Z" fill="none" stroke="#8DD8F5" stroke-opacity=".055"/>
    </pattern>
  </defs>
  <style>
    .arrow { animation:nudge 2.2s ease-in-out infinite; }
    @keyframes nudge { 0%,100% { transform:translateX(0) } 50% { transform:translateX(5px) } }
    @media (prefers-reduced-motion: reduce) { .arrow { animation:none!important } }
  </style>
  <rect x="6" y="6" width="568" height="218" rx="24" fill="url(#bg)"/>
  <rect x="6" y="6" width="568" height="218" rx="24" fill="url(#hex)"/>
  <rect x="6" y="6" width="568" height="218" rx="24" fill="none" stroke="#F58025" stroke-opacity=".42" stroke-width="2"/>
  <rect x="6" y="6" width="7" height="218" rx="3.5" fill="#F58025"/>
  <g font-family="-apple-system,BlinkMacSystemFont,'Segoe UI',Arial,sans-serif">
    <text x="34" y="39" fill="#FFB15C" font-size="11" font-weight="800" letter-spacing="2.1">FEATURED 01 · AI WORKSPACE</text>
    <text x="34" y="75" fill="#FFFFFF" font-size="25" font-weight="830">Odysseus Babbage</text>
    <text x="34" y="105" fill="#C9DFE9" font-size="15">A self-hosted workspace for agents, research, documents,</text>
    <text x="34" y="130" fill="#C9DFE9" font-size="15">email, notes, calendar, and local model workflows.</text>
    <text x="34" y="178" fill="#84AFC2" font-size="12" font-weight="700">AI Agents  ·  MCP  ·  Local Models  ·  Docker</text>
    <g transform="translate(34 196)">
      <text y="0" fill="#FFB15C" font-size="12" font-weight="800" letter-spacing="1">OPEN PROJECT</text>
      <text class="arrow" x="104" y="0" fill="#F58025" font-size="17" font-weight="850">→</text>
    </g>
    <g transform="translate(520 175)">
      <path d="M0-25L14-49H42L56-25 42-1H14Z" fill="#F58025" fill-opacity=".11" stroke="#F58025" stroke-opacity=".42"/>
      <path d="M14-25L21-37H35L42-25 35-13H21Z" fill="#F58025" opacity=".9"/>
    </g>
  </g>
</svg>
